<?xml version="1.0" encoding="UTF-8"?>
<svg id="Layer_1" data-name="Layer 1" xmlns="http://www.w3.org/2000/svg" xmlns:xlink="http://www.w3.org/1999/xlink" viewBox="0 0 135.39 126.1">
  <defs>
    <style>
      .cls-1 {
        clip-path: url(#clippath);
      }

      .cls-2, .cls-3 {
        fill: red;
      }

      .cls-4 {
        fill: #1a1a1a;
      }

      .cls-4, .cls-3 {
        stroke-width: 0px;
      }
    </style>
    <clipPath id="clippath">
      <path class="cls-3" d="m120.43,93.04c-17.39,26.57-53.02,34-79.59,16.61C14.28,92.26,6.84,56.63,24.23,30.06,41.62,3.5,77.26-3.94,103.82,13.45c26.57,17.39,34,53.02,16.61,79.59Z"/>
    </clipPath>
  </defs>
  <path class="cls-2" d="m120.43,93.04c-17.39,26.57-53.02,34-79.59,16.61C14.28,92.26,6.84,56.63,24.23,30.06,41.62,3.5,77.26-3.94,103.82,13.45c26.57,17.39,34,53.02,16.61,79.59Z"/>
  <g class="cls-1">
    <g>
      <path class="cls-4" d="m44.96,115.35c-5.24-3.43-17.38-12.82-21.88-28.53-4.08-14.28-1.02-30.19,9.11-47.29,6.97-11.77,15.63-20.28,25.75-25.29,8.11-4.02,17.15-5.8,26.87-5.31,16.5.84,29.06,7.86,29.59,8.16.44.25.59.8.34,1.24-.25.44-.81.59-1.24.35-.13-.07-12.76-7.13-28.84-7.93-9.4-.47-18.13,1.26-25.94,5.14-9.78,4.85-18.18,13.12-24.96,24.57-9.86,16.66-12.86,32.08-8.92,45.86,5.56,19.42,23.24,28.81,23.42,28.9.45.23.62.78.39,1.23-.23.45-.78.62-1.23.39-.04-.02-.97-.52-2.46-1.49Z"/>
      <path class="cls-4" d="m132.24,76.13c-.15-.08-.27-.19-.37-.35-10.59-17.38-22.73-31.14-36.09-40.89-10.66-7.78-22.12-13.04-34.06-15.64-20.29-4.41-35.07.47-35.21.52-.51.17-1.06-.1-1.22-.62-.16-.52.12-1.07.64-1.25.62-.21,15.44-5.1,36.24-.58,12.2,2.65,23.89,8.02,34.77,15.96,13.56,9.9,25.87,23.84,36.59,41.44.28.46.13,1.07-.32,1.36-.31.2-.68.2-.97.04Z"/>
      <path class="cls-4" d="m8.9,73.82c-.25-.16-.41-.44-.41-.75,0-.33-.07-8.23,3.02-17.14,4.12-11.88,11.93-19.72,22.59-22.69,9.42-2.62,17.27.45,23.99,9.39,5.81,7.72,10.1,18.86,14.26,29.63,2.19,5.66,4.25,11.01,6.52,15.9,4.51,9.73,12.8,15.42,22.74,15.61,10.7.21,21.07-5.87,25.82-15.14.23-.45.78-.63,1.23-.4.45.23.63.78.4,1.23-5.06,9.87-16.1,16.36-27.48,16.13-10.67-.21-19.55-6.28-24.36-16.67-2.29-4.95-4.46-10.57-6.56-16.01-8.21-21.28-16.71-43.29-36.06-37.91-10.2,2.84-17.39,10.08-21.36,21.53-2.98,8.6-2.92,16.44-2.92,16.52,0,.5-.4.92-.9.92-.19,0-.36-.05-.51-.15Z"/>
    </g>
  </g>
</svg>