<svg width="114" height="107" viewBox="0 0 114 107" fill="none" xmlns="http://www.w3.org/2000/svg">
<path d="M53.8333 53.5C53.8333 83.0472 41.7823 107 26.9167 107C12.051 107 0 83.0472 0 53.5C0 23.9528 12.051 0 26.9167 0C41.7823 0 53.8333 23.9528 53.8333 53.5Z" fill="white"/>
<path d="M114 53.5C114 83.0472 101.949 107 87.0833 107C72.2177 107 60.1667 83.0472 60.1667 53.5C60.1667 23.9528 72.2177 0 87.0833 0C101.949 0 114 23.9528 114 53.5Z" fill="white"/>
<path d="M50.6667 69.2353C50.6667 81.4018 43.5778 91.2647 34.8333 91.2647C26.0888 91.2647 19 81.4018 19 69.2353C19 57.0688 26.0888 47.2059 34.8333 47.2059C43.5778 47.2059 50.6667 57.0688 50.6667 69.2353Z" fill="black"/>
<path d="M28.4526 58.7835L25.6175 50.618L22.4507 55.3386L28.4526 58.7835Z" fill="white"/>
<path d="M110.833 69.2353C110.833 81.4018 103.745 91.2647 95 91.2647C86.2555 91.2647 79.1667 81.4018 79.1667 69.2353C79.1667 57.0688 86.2555 47.2059 95 47.2059C103.745 47.2059 110.833 57.0688 110.833 69.2353Z" fill="black"/>
<path d="M88.6193 58.7835L85.7841 50.618L82.6174 55.3386L88.6193 58.7835Z" fill="white"/>
</svg>
