<svg width="501" height="486" viewBox="0 0 501 486" fill="none" xmlns="http://www.w3.org/2000/svg">
<path d="M136 40C93.0423 29.0653 68.9577 22.9347 26 12L51.5 120L136 40Z" fill="#FF3030"/>
<path d="M52.7769 34.3012L105.954 49.1532L66.5034 87.7801L52.7769 34.3012Z" fill="white"/>
<path d="M501 246C501 378.548 388.847 486 250.5 486C112.153 486 0 378.548 0 246C0 113.452 112.153 6 250.5 6C388.847 6 501 113.452 501 246Z" fill="#FF3030"/>
<path d="M452.551 112.402C458.722 68.5066 462.181 43.8959 468.352 0L363.789 37.1591L452.551 112.402Z" fill="#FF3030"/>
<path d="M446.115 26.2472L437.067 80.7131L394.422 45.6438L446.115 26.2472Z" fill="white"/>
<path d="M252 346.5C252 408.632 226.928 459 196 459C165.072 459 140 408.632 140 346.5C140 284.368 165.072 234 196 234C226.928 234 252 284.368 252 346.5Z" fill="white"/>
<path d="M231 399.234C231 424.476 216.897 444.938 199.5 444.938C182.103 444.938 168 424.476 168 399.234C168 373.993 182.103 353.531 199.5 353.531C216.897 353.531 231 373.993 231 399.234Z" fill="black"/>
<path d="M186.806 377.551L181.165 360.61L174.865 370.404L186.806 377.551Z" fill="white"/>
<path d="M372 346.5C372 408.632 346.704 459 315.5 459C284.296 459 259 408.632 259 346.5C259 284.368 284.296 234 315.5 234C346.704 234 372 284.368 372 346.5Z" fill="white"/>
<path d="M350.812 399.234C350.812 424.476 336.584 444.938 319.031 444.938C301.479 444.938 287.25 424.476 287.25 399.234C287.25 373.993 301.479 353.531 319.031 353.531C336.584 353.531 350.812 373.993 350.812 399.234Z" fill="black"/>
<path d="M306.224 377.551L300.533 360.61L294.176 370.404L306.224 377.551Z" fill="white"/>
</svg>
