<svg width="64" height="86" viewBox="0 0 64 86" fill="none" xmlns="http://www.w3.org/2000/svg">
<ellipse cx="32" cy="55.351" rx="32" ry="30.6489" fill="#F460D3"/>
<ellipse cx="8.46631" cy="16.0192" rx="8.46631" ry="16.0192" transform="matrix(0.991279 -0.131781 0.139316 0.990248 10.3529 2.23138)" fill="#F460D3"/>
<ellipse cx="8.47058" cy="16.0106" rx="8.47058" ry="16.0106" transform="matrix(0.999992 0.00399933 -0.00423241 0.999991 34.2369 0.877808)" fill="#F460D3"/>
<path d="M31 60C31 68.8366 27.4183 76 23 76C18.5817 76 15 68.8366 15 60C15 51.1634 18.5817 44 23 44C27.4183 44 31 51.1634 31 60Z" fill="white"/>
<path d="M28 67.5C28 71.0899 25.9853 74 23.5 74C21.0147 74 19 71.0899 19 67.5C19 63.9101 21.0147 61 23.5 61C25.9853 61 28 63.9101 28 67.5Z" fill="black"/>
<path d="M21.6865 64.4161L20.8807 62.0068L19.9807 63.3996L21.6865 64.4161Z" fill="white"/>
<path d="M48 60C48 68.8366 44.4183 76 40 76C35.5817 76 32 68.8366 32 60C32 51.1634 35.5817 44 40 44C44.4183 44 48 51.1634 48 60Z" fill="white"/>
<path d="M45 67.5C45 71.0899 42.9853 74 40.5 74C38.0147 74 36 71.0899 36 67.5C36 63.9101 38.0147 61 40.5 61C42.9853 61 45 63.9101 45 67.5Z" fill="black"/>
<path d="M38.6865 64.4161L37.8807 62.0068L36.9807 63.3996L38.6865 64.4161Z" fill="white"/>
</svg>
