<svg width="64" height="86" viewBox="0 0 64 86" fill="none" xmlns="http://www.w3.org/2000/svg">
<ellipse cx="32" cy="55.351" rx="32" ry="30.6489" fill="#E76A6A"/>
<ellipse cx="8.46631" cy="16.0192" rx="8.46631" ry="16.0192" transform="matrix(0.991279 -0.131781 0.139316 0.990248 10.3529 2.23138)" fill="#E76A6A"/>
<ellipse cx="8.47058" cy="16.0106" rx="8.47058" ry="16.0106" transform="matrix(0.999992 0.00399933 -0.00423241 0.999991 34.2369 0.877808)" fill="#E76A6A"/>
<path d="M31.6389 61.5C31.6389 69.5081 28.3619 76 24.3194 76C20.277 76 17 69.5081 17 61.5C17 53.4919 20.277 47 24.3194 47C28.3619 47 31.6389 53.4919 31.6389 61.5Z" fill="white"/>
<path d="M48 61.5C48 69.5081 44.723 76 40.6806 76C36.6381 76 33.3611 69.5081 33.3611 61.5C33.3611 53.4919 36.6381 47 40.6806 47C44.723 47 48 53.4919 48 61.5Z" fill="white"/>
<path d="M30.7778 65.7647C30.7778 69.0622 28.8501 71.7353 26.4722 71.7353C24.0943 71.7353 22.1667 69.0622 22.1667 65.7647C22.1667 62.4672 24.0943 59.7941 26.4722 59.7941C28.8501 59.7941 30.7778 62.4672 30.7778 65.7647Z" fill="black"/>
<path d="M24.7371 62.932L23.9661 60.7189L23.105 61.9983L24.7371 62.932Z" fill="white"/>
<path d="M47.1389 65.7647C47.1389 69.0622 45.2112 71.7353 42.8333 71.7353C40.4554 71.7353 38.5278 69.0622 38.5278 65.7647C38.5278 62.4672 40.4554 59.7941 42.8333 59.7941C45.2112 59.7941 47.1389 62.4672 47.1389 65.7647Z" fill="black"/>
<path d="M41.0982 62.932L40.3273 60.7189L39.4661 61.9983L41.0982 62.932Z" fill="white"/>
</svg>
