<svg width="64" height="86" viewBox="0 0 64 86" fill="none" xmlns="http://www.w3.org/2000/svg">
<path d="M0 29.069L32 0L64 29.069V86H0V29.069Z" fill="#EAD1A0"/>
<path d="M31 55.7958C31 65.1846 27.1944 72.7958 22.5 72.7958C17.8056 72.7958 14 65.1846 14 55.7958C14 46.407 17.8056 38.7958 22.5 38.7958C27.1944 38.7958 31 46.407 31 55.7958Z" fill="white"/>
<path d="M50 55.7958C50 65.1846 46.1944 72.7958 41.5 72.7958C36.8056 72.7958 33 65.1846 33 55.7958C33 46.407 36.8056 38.7958 41.5 38.7958C46.1944 38.7958 50 46.407 50 55.7958Z" fill="white"/>
<path d="M30 60.7958C30 64.6618 27.7614 67.7958 25 67.7958C22.2386 67.7958 20 64.6618 20 60.7958C20 56.9298 22.2386 53.7958 25 53.7958C27.7614 53.7958 30 56.9298 30 60.7958Z" fill="black"/>
<path d="M22.985 57.4747L22.0897 54.88L21.0897 56.38L22.985 57.4747Z" fill="white"/>
<path d="M49 60.7958C49 64.6618 46.7614 67.7958 44 67.7958C41.2386 67.7958 39 64.6618 39 60.7958C39 56.9298 41.2386 53.7958 44 53.7958C46.7614 53.7958 49 56.9298 49 60.7958Z" fill="black"/>
<path d="M41.985 57.4747L41.0897 54.88L40.0897 56.38L41.985 57.4747Z" fill="white"/>
</svg>
