<svg width="64" height="86" viewBox="0 0 64 86" fill="none" xmlns="http://www.w3.org/2000/svg">
<path d="M0 21.179H64L53.2336 86H12.5607L0 21.179Z" fill="#402F23"/>
<path d="M8.97198 66.6674H56.3999L53.2337 86H12.5608L8.97198 66.6674Z" fill="#F68BD8" fill-opacity="0.99"/>
<path d="M32.1667 48C32.1667 55.732 28.9954 62 25.0833 62C21.1713 62 18 55.732 18 48C18 40.268 21.1713 34 25.0833 34C28.9954 34 32.1667 40.268 32.1667 48Z" fill="white"/>
<path d="M48 48C48 55.732 44.8287 62 40.9167 62C37.0046 62 33.8333 55.732 33.8333 48C33.8333 40.268 37.0046 34 40.9167 34C44.8287 34 48 40.268 48 48Z" fill="white"/>
<path d="M31.3333 52.1176C31.3333 55.3014 29.4679 57.8824 27.1667 57.8824C24.8655 57.8824 23 55.3014 23 52.1176C23 48.9339 24.8655 46.3529 27.1667 46.3529C29.4679 46.3529 31.3333 48.9339 31.3333 52.1176Z" fill="black"/>
<path d="M25.4875 49.3826L24.7414 47.2458L23.9081 48.4811L25.4875 49.3826Z" fill="white"/>
<path d="M47.1667 52.1176C47.1667 55.3014 45.3012 57.8824 43 57.8824C40.6988 57.8824 38.8333 55.3014 38.8333 52.1176C38.8333 48.9339 40.6988 46.3529 43 46.3529C45.3012 46.3529 47.1667 48.9339 47.1667 52.1176Z" fill="black"/>
<path d="M41.3209 49.3826L40.5748 47.2458L39.7414 48.4811L41.3209 49.3826Z" fill="white"/>
<rect x="43.7333" y="7.09808" width="2.13333" height="14.1962" fill="#D9D9D9"/>
<rect width="2.06996" height="9.98928" transform="matrix(0.883214 0.468971 -0.670006 0.742355 50.3563 0)" fill="#D9D9D9"/>
</svg>
