<svg width="64" height="87" viewBox="0 0 64 87" fill="none" xmlns="http://www.w3.org/2000/svg">
<rect y="26.4091" width="64" height="60.5909" fill="#60E2F4"/>
<path d="M14.5454 28.3636C16.8235 -7.63761 47.5767 -8.35765 50.4242 27.6436" stroke="#13CEE7" stroke-width="2"/>
<path d="M32 63C32 71.8366 28.4183 79 24 79C19.5817 79 16 71.8366 16 63C16 54.1634 19.5817 47 24 47C28.4183 47 32 54.1634 32 63Z" fill="white"/>
<path d="M29 70.5C29 74.0899 26.9853 77 24.5 77C22.0147 77 20 74.0899 20 70.5C20 66.9101 22.0147 64 24.5 64C26.9853 64 29 66.9101 29 70.5Z" fill="black"/>
<path d="M22.6865 67.4161L21.8807 65.0068L20.9807 66.3996L22.6865 67.4161Z" fill="white"/>
<path d="M49 63C49 71.8366 45.4183 79 41 79C36.5817 79 33 71.8366 33 63C33 54.1634 36.5817 47 41 47C45.4183 47 49 54.1634 49 63Z" fill="white"/>
<path d="M46 70.5C46 74.0899 43.9853 77 41.5 77C39.0147 77 37 74.0899 37 70.5C37 66.9101 39.0147 64 41.5 64C43.9853 64 46 66.9101 46 70.5Z" fill="black"/>
<path d="M39.6865 67.4161L38.8807 65.0068L37.9807 66.3996L39.6865 67.4161Z" fill="white"/>
</svg>
