<svg width="64" height="86" viewBox="0 0 64 86" fill="none" xmlns="http://www.w3.org/2000/svg">
<path d="M0 21.179H64L53.2336 86H12.5607L0 21.179Z" fill="url(#paint0_linear_39_40)"/>
<path d="M32.1667 48C32.1667 55.732 28.9953 62 25.0833 62C21.1713 62 18 55.732 18 48C18 40.268 21.1713 34 25.0833 34C28.9953 34 32.1667 40.268 32.1667 48Z" fill="white"/>
<path d="M48 48C48 55.732 44.8287 62 40.9167 62C37.0047 62 33.8333 55.732 33.8333 48C33.8333 40.268 37.0047 34 40.9167 34C44.8287 34 48 40.268 48 48Z" fill="white"/>
<path d="M31.3333 52.1176C31.3333 55.3014 29.4679 57.8824 27.1667 57.8824C24.8655 57.8824 23 55.3014 23 52.1176C23 48.9339 24.8655 46.3529 27.1667 46.3529C29.4679 46.3529 31.3333 48.9339 31.3333 52.1176Z" fill="black"/>
<path d="M25.4875 49.3826L24.7414 47.2458L23.9081 48.4811L25.4875 49.3826Z" fill="white"/>
<path d="M47.1667 52.1176C47.1667 55.3014 45.3012 57.8824 43 57.8824C40.6988 57.8824 38.8333 55.3014 38.8333 52.1176C38.8333 48.9339 40.6988 46.3529 43 46.3529C45.3012 46.3529 47.1667 48.9339 47.1667 52.1176Z" fill="black"/>
<path d="M41.3209 49.3826L40.5748 47.2458L39.7414 48.4811L41.3209 49.3826Z" fill="white"/>
<rect x="43.7333" y="7.09808" width="2.13333" height="14.1962" fill="#D9D9D9"/>
<rect width="2.06996" height="9.98928" transform="matrix(0.883214 0.468971 -0.670006 0.742355 50.3563 0)" fill="#D9D9D9"/>
<ellipse cx="17.5" cy="17" rx="10.5" ry="10" fill="#EEE519"/>
<ellipse cx="17.5" cy="17" rx="8.5" ry="8" fill="#F8F8F8"/>
<path d="M13.4472 8.77631L17.5 16" stroke="#EEE519"/>
<path d="M8.9697 19.1815L16.9305 17.1679" stroke="#EEE519"/>
<path d="M26.972 19.233L19.07 17" stroke="#EEE519"/>
<path d="M16.972 16.233L9.06997 14" stroke="#EEE519"/>
<path d="M22.5985 24.9512L18.496 17.838" stroke="#EEE519"/>
<path d="M25.3389 12.7217L18.0689 16.5521" stroke="#EEE519"/>
<path d="M17 25.1751L18.007 17.0256" stroke="#EEE519"/>
<path d="M18 16.1751L19.007 8.02563" stroke="#EEE519"/>
<path d="M12 23.1337L17.672 17.196" stroke="#EEE519"/>
<path d="M19.9894 16.7926C19.9894 17.8972 19.0939 18.7926 17.9894 18.7926C16.8848 18.7926 15.9894 17.8972 15.9894 16.7926C15.9894 15.6881 16.8848 14.7926 17.9894 14.7926C19.0939 14.7926 19.9894 15.6881 19.9894 16.7926Z" fill="#EEE519"/>
<defs>
<linearGradient id="paint0_linear_39_40" x1="32" y1="21.179" x2="32" y2="86" gradientUnits="userSpaceOnUse">
<stop stop-color="#F3E8E1"/>
<stop offset="1" stop-color="#8A0909"/>
</linearGradient>
</defs>
</svg>
