<svg width="273" height="116" viewBox="0 0 273 116" fill="none" xmlns="http://www.w3.org/2000/svg">
<path d="M0 1.04537e-05H7.24779V116H0V1.04537e-05Z" fill="black"/>
<path d="M2.42758 7.67843L2.41591 0.428438L268.549 0L268.561 7.24999L2.42758 7.67843Z" fill="black"/>
<path d="M265.752 1.04537e-05H273V116H265.752V1.04537e-05Z" fill="black"/>
<path d="M57.9823 4.83333H60.3982V74.9167H57.9823V4.83333Z" fill="black"/>
<path d="M173.947 4.83333H176.363V74.9167H173.947V4.83333Z" fill="black"/>
<path d="M99.0531 4.83333H101.469V74.9167H99.0531V4.83333Z" fill="black"/>
<path d="M215.018 4.83333H217.434V74.9167H215.018V4.83333Z" fill="black"/>
<path d="M50.7345 72.5H106.301V84.5833H50.7345V72.5Z" fill="black"/>
<path d="M166.699 72.5H222.266V84.5833H166.699V72.5Z" fill="black"/>
</svg>
